<svg width="97" height="94" fill="none" xmlns="http://www.w3.org/2000/svg"><path d="M77.704 44.223c-4.243-7.24-11.34-12.715-20.515-15.835-8.073-2.745-14.634-2.245-21.582-1.715h-.001l-.026.002c-3.805.29-7.746.59-12.177.365-8.152-.416-17.772-5.227-17.868-5.274L.27 19.103l1.149 5.744c.09.443 2.246 10.993 8.664 24.711 6.782 14.501 15.251 24.567 25.17 29.907 8.047 4.33 17.46 5.513 26.016 3.419a33.621 33.621 0 0 0 4.732-1.534c6.973-2.855 12.116-7.918 14.233-13.97l.002-.001c3.558.037 7.116-.107 10.661-.43l2.847-.254-.483-5.626-2.845.255a100.13 100.13 0 0 1-8.91.408c.691-5.979-.606-12.055-3.803-17.51Z" fill="#3FE06C"/><path d="M26.483 52.353c-1.338-.656-1.673-1.667-1.003-3.033l5.206-10.622c.67-1.366 1.673-1.721 3.011-1.065l6.9 3.382c.642.314 1.037.758 1.188 1.334.164.581.11 1.151-.164 1.709-.273.557-.69.95-1.25 1.176-.547.233-1.141.193-1.782-.121l-4.872-2.388-.687 1.4 4.057 1.989c.585.287.946.697 1.082 1.23a2.057 2.057 0 0 1-.134 1.543 2.139 2.139 0 0 1-1.147 1.071c-.498.206-1.04.165-1.625-.122l-4.057-1.988-.697 1.422 4.872 2.387c.641.315 1.037.76 1.187 1.334.172.568.12 1.13-.153 1.688s-.69.95-1.25 1.177c-.547.233-1.141.193-1.782-.122l-6.9-3.381Zm22.76-1.966c-.571-.28-1.11-.432-1.617-.456a3.594 3.594 0 0 0-1.425.21 3.19 3.19 0 0 0-1.13.716c-.33.322-.595.685-.793 1.09a4.187 4.187 0 0 0-.395 1.336c-.052.458-.014.91.114 1.353.15.436.386.854.708 1.254.33.386.773.716 1.33.99l1.506.737c.348.17.617.38.807.629.196.234.33.49.402.767.078.264.098.541.058.833-.032.278-.11.542-.233.793a2.5 2.5 0 0 1-1.209 1.197c-.532.24-1.14.193-1.823-.142l-1.485-.727c-1.213-.595-2.18-1.32-2.902-2.175-.715-.869-1.212-1.795-1.49-2.779a7.873 7.873 0 0 1-.222-2.987 8.853 8.853 0 0 1 .852-2.902 9.253 9.253 0 0 1 1.792-2.492 7.71 7.71 0 0 1 2.621-1.698c.983-.382 2.054-.557 3.214-.525 1.16.032 2.38.363 3.663.992l1.171.573c.335.164.597.37.786.619.21.241.351.5.423.778.085.284.108.572.07.863a2.18 2.18 0 0 1-.223.825c-.13.265-.305.499-.526.702-.207.21-.448.368-.725.474a2.29 2.29 0 0 1-.874.142 2.39 2.39 0 0 1-.96-.263l-1.485-.727Zm3.112 5.518a8.153 8.153 0 0 1 2.02-2.64 8.434 8.434 0 0 1 5.951-2.036 8.151 8.151 0 0 1 3.214.849 8.15 8.15 0 0 1 2.64 2.02 8.098 8.098 0 0 1 1.595 2.778 8.437 8.437 0 0 1 .442 3.173 7.909 7.909 0 0 1-.828 3.224 7.91 7.91 0 0 1-2.041 2.63 8.436 8.436 0 0 1-2.779 1.595 8.098 8.098 0 0 1-3.172.442 8.152 8.152 0 0 1-3.215-.85 8.152 8.152 0 0 1-2.64-2.02 8.434 8.434 0 0 1-2.036-5.95 8.152 8.152 0 0 1 .849-3.215Zm4.088 2.082c-.232.474-.36.964-.384 1.471a3.946 3.946 0 0 0 .917 2.68c.336.372.741.674 1.215.907.474.232.954.363 1.44.394.508.024.99-.042 1.447-.199a3.78 3.78 0 0 0 1.275-.697 3.71 3.71 0 0 0 .928-1.205 3.708 3.708 0 0 0 .164-2.928 3.868 3.868 0 0 0-.729-1.264 3.544 3.544 0 0 0-1.184-.918 3.706 3.706 0 0 0-1.471-.384 3.87 3.87 0 0 0-2.69.938c-.386.33-.695.73-.928 1.205Z" fill="#fff"/></svg>