<svg width="19" height="19" fill="none" xmlns="http://www.w3.org/2000/svg"><path d="m18.152 14.485-4.22-3.836a1.039 1.039 0 0 0-1.443.044l-2.484 2.555c-.598-.114-1.8-.49-3.038-1.723C5.73 10.286 5.355 9.08 5.244 8.487l2.553-2.485A1.038 1.038 0 0 0 7.84 4.56L4.006.34A1.038 1.038 0 0 0 2.562.25L.31 2.182c-.18.18-.287.42-.301.673-.016.26-.313 6.407 4.454 11.175 4.158 4.158 9.367 4.462 10.801 4.462.21 0 .339-.006.373-.009a1.03 1.03 0 0 0 .673-.302l1.93-2.253a1.035 1.035 0 0 0-.088-1.443Z" fill="#fff"/></svg>