<svg width="26" height="34" fill="none" xmlns="http://www.w3.org/2000/svg"><path fill-rule="evenodd" clip-rule="evenodd" d="M13.796 4.428c.119-.327 1.259-1.617 1.259-2.48 0-.862-.48-1.948-1.95-1.948-1.48 0-2.132 1.086-2.132 2.014 0 .842 1.14 2.062 1.264 2.368C-3.52 4.382.444 16.96.444 16.96s4.41-8.25 8.337-9.004c-.005.204-.013.406-.013.61 0 5.81 4.333 10.52 4.333 10.52s3.927-4.71 3.927-10.52c0-.219-.008-.432-.013-.648 4.392.703 8.471 9.148 8.471 9.148s4.249-12.637-11.69-12.637Z" fill="#FF0532"/><path fill-rule="evenodd" clip-rule="evenodd" d="M19.236 11.917c0 5.083-6.161 10.196-6.161 10.196S6.79 16.955 6.79 11.81c-2.59 2.012-4.377 6.02-5.62 7.624 0 0 4.997 14.565 11.887 14.565 6.891 0 11.824-14.3 11.824-14.3-.988-1.276-2.86-5.56-5.645-7.783Z" fill="#FF0532"/></svg>