<svg width="97" height="94" viewBox="0 0 97 94" fill="none" xmlns="http://www.w3.org/2000/svg">
<path d="M77.7041 44.2226C73.4606 36.983 66.3648 31.5075 57.1885 28.3879C49.1159 25.6431 42.5546 26.1432 35.6071 26.6727L35.6056 26.6728L35.5796 26.6748C31.7751 26.9646 27.8336 27.2649 23.4028 27.0396C15.2506 26.6237 5.63101 21.8131 5.53486 21.7658L0.271269 19.103L1.41978 24.8468C1.50979 25.2896 3.66574 35.8402 10.0835 49.5584C16.8656 64.0591 25.3351 74.1247 35.2535 79.4649C43.3008 83.7942 52.7148 84.978 61.2695 82.884C62.883 82.4901 64.465 81.9772 66.0022 81.3497C72.9751 78.4953 78.1184 73.4322 80.2354 67.3794L80.2371 67.3789C83.7948 67.4156 87.3531 67.2718 90.8981 66.9483L93.745 66.6945L93.2617 61.0694L90.417 61.3245C87.3885 61.5955 84.4244 61.7309 81.5063 61.7316C82.198 55.7531 80.9015 49.6772 77.7041 44.2226Z" fill="#3FE06C"/>
<path d="M26.4827 52.3527C25.1446 51.6968 24.8102 50.6858 25.4798 49.3198L30.6857 38.698C31.3552 37.332 32.3591 36.9769 33.6973 37.6327L40.5972 41.0146C41.2385 41.3288 41.6342 41.7735 41.7846 42.3485C41.9489 42.9304 41.8944 43.5001 41.6211 44.0577C41.3478 44.6153 40.9309 45.0073 40.3704 45.234C39.8238 45.4674 39.2299 45.427 38.5887 45.1127L33.7169 42.7249L33.0302 44.1259L37.0866 46.1139C37.672 46.4009 38.0328 46.8111 38.169 47.3446C38.3259 47.871 38.2814 48.3851 38.0354 48.8869C37.7895 49.3887 37.407 49.7458 36.888 49.9582C36.3898 50.1635 35.8479 50.1227 35.2625 49.8357L31.2061 47.8477L30.5093 49.2695L35.3811 51.6572C36.0223 51.9715 36.418 52.4162 36.5684 52.9912C36.7395 53.5591 36.6885 54.1219 36.4152 54.6795C36.1419 55.237 35.725 55.6291 35.1644 55.8557C34.6178 56.0892 34.0239 56.0488 33.3827 55.7345L26.4827 52.3527ZM49.2435 50.3867C48.672 50.1066 48.1327 49.9547 47.6257 49.931C47.1187 49.9072 46.6437 49.9769 46.2007 50.1401C45.7785 50.2962 45.402 50.5352 45.0713 50.8572C44.7406 51.1792 44.4762 51.5423 44.2781 51.9466C44.0731 52.3647 43.9413 52.8101 43.8825 53.2827C43.8306 53.7413 43.8689 54.1923 43.9974 54.6356C44.1467 55.0718 44.3826 55.4899 44.7051 55.89C45.0345 56.2762 45.4779 56.6059 46.0355 56.8792L47.5409 57.617C47.8894 57.7878 48.1584 57.9975 48.3478 58.2459C48.544 58.4804 48.678 58.7362 48.7496 59.0133C48.8281 59.2765 48.8476 59.5541 48.8083 59.846C48.7758 60.1239 48.698 60.3884 48.5751 60.6393C48.3086 61.1829 47.9056 61.5818 47.3661 61.836C46.8335 62.0763 46.2256 62.0291 45.5426 61.6943L44.0581 60.9667C42.8453 60.3723 41.878 59.6475 41.1562 58.7924C40.4411 57.9233 39.9443 56.9969 39.6658 56.0133C39.4011 55.0365 39.3273 54.0408 39.4442 53.0263C39.5611 52.0118 39.845 51.0445 40.2959 50.1245C40.7468 49.2045 41.3443 48.3736 42.0882 47.6318C42.8528 46.8829 43.7266 46.317 44.7094 45.9344C45.6922 45.5517 46.7634 45.3765 47.9231 45.409C49.0828 45.4414 50.3038 45.7719 51.5862 46.4005L52.7571 46.9744C53.0917 47.1383 53.3537 47.3445 53.5431 47.593C53.7533 47.8343 53.8942 48.0935 53.9658 48.3706C54.0514 48.6546 54.0745 48.9425 54.0351 49.2344C54.0166 49.5192 53.9424 49.794 53.8126 50.0589C53.6828 50.3237 53.5076 50.5577 53.287 50.7608C53.0804 50.9707 52.8387 51.1288 52.5618 51.2352C52.3058 51.3344 52.0145 51.3818 51.6882 51.3775C51.3826 51.366 51.0626 51.2783 50.728 51.1143L49.2435 50.3867ZM52.355 55.9052C52.8674 54.8598 53.5408 53.9797 54.3751 53.2649C55.2095 52.5501 56.1356 52.0186 57.1534 51.6704C58.1712 51.3221 59.2288 51.1749 60.3261 51.2286C61.4235 51.2824 62.4949 51.5655 63.5403 52.0779C64.5858 52.5903 65.4659 53.2637 66.1806 54.0981C66.9093 54.9393 67.4409 55.8654 67.7752 56.8763C68.1234 57.8941 68.2707 58.9517 68.2169 60.049C68.1771 61.1532 67.901 62.228 67.3886 63.2735C66.8762 64.3189 66.1958 65.1956 65.3475 65.9035C64.5131 66.6183 63.587 67.1498 62.5692 67.4981C61.5654 67.8532 60.5078 68.0004 59.3965 67.9398C58.2992 67.886 57.2278 67.603 56.1823 67.0906C55.1369 66.5782 54.2568 65.9048 53.542 65.0704C52.8272 64.236 52.2957 63.3099 51.9475 62.2921C51.5992 61.2743 51.452 60.2168 51.5057 59.1194C51.5595 58.0221 51.8426 56.9507 52.355 55.9052ZM56.4433 57.9868C56.211 58.4607 56.083 58.9512 56.0593 59.4582C56.0423 59.9512 56.1121 60.4263 56.2684 60.8832C56.4248 61.3402 56.6607 61.7583 56.9761 62.1377C57.3123 62.5099 57.7174 62.8122 58.1913 63.0445C58.6653 63.2767 59.1453 63.4083 59.6316 63.4392C60.1386 63.4629 60.6205 63.3966 61.0775 63.2402C61.5484 63.0907 61.9735 62.8582 62.3529 62.5428C62.739 62.2134 63.0483 61.8118 63.2806 61.3379C63.5128 60.8639 63.6409 60.3735 63.6646 59.8665C63.6884 59.3595 63.6151 58.8741 63.4448 58.4103C63.2884 57.9533 63.0455 57.5317 62.7162 57.1456C62.4008 56.7662 62.0061 56.4604 61.5321 56.2281C61.0582 55.9958 60.5677 55.8678 60.0607 55.8441C59.5677 55.8272 59.0927 55.8969 58.6357 56.0532C58.1787 56.2096 57.7572 56.4525 57.371 56.7818C56.9848 57.1112 56.6756 57.5129 56.4433 57.9868Z" fill="white"/>
</svg>
