<svg width="19" height="19" viewBox="0 0 19 19" fill="none" xmlns="http://www.w3.org/2000/svg">
<path d="M18.1521 14.4851L13.9326 10.6486C13.7331 10.4673 13.471 10.3706 13.2016 10.379C12.9322 10.3873 12.6766 10.5 12.4887 10.6932L10.0047 13.2478C9.4068 13.1336 8.20478 12.7589 6.96746 11.5247C5.73015 10.2863 5.35542 9.08122 5.24436 8.48748L7.79684 6.00248C7.99034 5.81474 8.1032 5.55907 8.11153 5.28959C8.11986 5.0201 8.02301 4.75795 7.84147 4.55861L4.006 0.340147C3.82439 0.140182 3.57198 0.018888 3.30238 0.00202597C3.03278 -0.014836 2.76723 0.0740623 2.56212 0.249841L0.309622 2.18157C0.13016 2.36168 0.0230455 2.6014 0.00859681 2.85524C-0.00697345 3.11474 -0.303846 9.26183 4.46273 14.0304C8.62102 18.1877 13.8298 18.4918 15.2643 18.4918C15.474 18.4918 15.6027 18.4856 15.637 18.4835C15.8908 18.4693 16.1304 18.3617 16.3096 18.1814L18.2403 15.9279C18.4168 15.7235 18.5064 15.4581 18.4899 15.1885C18.4734 14.919 18.3522 14.6665 18.1521 14.4851Z" fill="white"/>
</svg>
