<svg width="26" height="34" viewBox="0 0 26 34" fill="none" xmlns="http://www.w3.org/2000/svg">
<path fill-rule="evenodd" clip-rule="evenodd" d="M13.7956 4.4285C13.915 4.10125 15.0548 2.81137 15.0548 1.94862C15.0548 1.08588 14.575 0 13.1053 0C11.6247 0 10.9734 1.08588 10.9734 2.0145C10.9734 2.856 12.1131 4.07575 12.2369 4.38175C-3.52 4.38175 0.444187 16.9596 0.444187 16.9596C0.444187 16.9596 4.85342 8.71037 8.7807 7.956C8.77636 8.16 8.76767 8.36188 8.76767 8.56588C8.76767 14.3756 13.1009 19.0868 13.1009 19.0868C13.1009 19.0868 17.0282 14.3756 17.0282 8.56588C17.0282 8.347 17.0195 8.1345 17.0152 7.91775C21.407 8.62113 25.4863 17.0659 25.4863 17.0659C25.4863 17.0659 29.7349 4.4285 13.7956 4.4285Z" fill="#FF0532"/>
<path fill-rule="evenodd" clip-rule="evenodd" d="M19.2361 11.917C19.2361 17 13.0749 22.1128 13.0749 22.1128C13.0749 22.1128 6.78992 16.9554 6.78992 11.8108C4.19996 13.8231 2.41325 17.8309 1.16929 19.4352C1.16929 19.4352 6.16686 34 13.0575 34C19.9482 34 24.8806 19.7009 24.8806 19.7009C23.8928 18.4237 22.0214 14.1397 19.2361 11.917Z" fill="#FF0532"/>
</svg>
